<svg width="1512" height="1145" viewBox="0 0 1512 1145" fill="none" xmlns="http://www.w3.org/2000/svg">
<circle cx="764.719" cy="306.129" r="96.8375" stroke="#B59A5F" stroke-width="6.67845"/>
<path d="M748.69 208.624L764.719 0.256104L780.747 208.624H748.69Z" stroke="#B59A5F" stroke-width="6.67845"/>
<path d="M779.68 208.243L859.397 15.0609L810.164 218.162L779.68 208.243Z" stroke="#B59A5F" stroke-width="6.67845"/>
<path d="M809.267 217.47L944.848 58.4353L835.185 236.334L809.267 217.47Z" stroke="#B59A5F" stroke-width="6.67845"/>
<path d="M834.548 235.399L1012.68 126.122L853.357 261.358L834.548 235.399Z" stroke="#B59A5F" stroke-width="6.67845"/>
<path d="M853.04 260.271L1056.25 211.477L862.893 290.775L857.966 275.523L853.04 260.271Z" stroke="#B59A5F" stroke-width="6.67845"/>
<path d="M862.929 289.644L1071.26 306.123L862.86 321.7L862.929 289.644Z" stroke="#B59A5F" stroke-width="6.67845"/>
<path d="M863.243 320.635L1056.25 400.77L853.258 351.097L863.243 320.635Z" stroke="#B59A5F" stroke-width="6.67845"/>
<path d="M853.951 350.203L1012.69 486.127L835.03 376.08L853.951 350.203Z" stroke="#B59A5F" stroke-width="6.67845"/>
<path d="M835.966 375.444L944.857 553.816L809.966 394.196L835.966 375.444Z" stroke="#B59A5F" stroke-width="6.67845"/>
<path d="M811.054 393.881L859.407 597.194L780.528 403.669L811.054 393.881Z" stroke="#B59A5F" stroke-width="6.67845"/>
<path d="M782.082 403.634L766.054 612.002L750.026 403.634L782.082 403.634Z" stroke="#B59A5F" stroke-width="6.67845"/>
<path d="M751.092 404.015L671.376 597.197L720.609 394.096L751.092 404.015Z" stroke="#B59A5F" stroke-width="6.67845"/>
<path d="M721.506 394.788L585.926 553.822L695.588 375.923L721.506 394.788Z" stroke="#B59A5F" stroke-width="6.67845"/>
<path d="M696.225 376.859L518.089 486.136L677.416 350.9L696.225 376.859Z" stroke="#B59A5F" stroke-width="6.67845"/>
<path d="M677.733 351.987L474.526 400.78L667.879 321.482L677.733 351.987Z" stroke="#B59A5F" stroke-width="6.67845"/>
<path d="M667.844 322.614L459.511 306.135L667.913 290.558L667.844 322.614Z" stroke="#B59A5F" stroke-width="6.67845"/>
<path d="M667.53 291.623L474.521 211.488L677.515 261.161L667.53 291.623Z" stroke="#B59A5F" stroke-width="6.67845"/>
<path d="M676.822 262.055L518.082 126.131L695.743 236.178L676.822 262.055Z" stroke="#B59A5F" stroke-width="6.67845"/>
<path d="M694.808 236.813L585.917 58.4411L720.807 218.061L694.808 236.813Z" stroke="#B59A5F" stroke-width="6.67845"/>
<path d="M719.719 218.376L671.366 15.064L750.245 208.589L719.719 218.376Z" stroke="#B59A5F" stroke-width="6.67845"/>
<path d="M355.293 677.45C333.922 677.45 307.208 656.079 305.872 633.373C301.865 653.408 284.501 673.443 260.459 677.45C277.823 680.122 301.865 698.821 305.872 724.2C308.544 709.507 328.579 679.588 355.293 677.45Z" fill="#B59A5F"/>
<path d="M1021.8 772.284C1021.8 758.231 1031.58 755.175 1040.61 753.767C1041.31 753.658 1041.84 753.056 1041.84 752.344C1041.84 751.554 1041.2 750.913 1040.41 750.913H973.105C972.705 750.913 972.382 751.237 972.382 751.636C972.382 751.99 972.637 752.291 972.984 752.354C980.857 753.791 989.746 757.925 989.746 770.949C989.746 770.949 991.081 960.617 989.746 971.302C988.41 981.988 988.677 985.995 984.403 996.68C980.129 1007.37 974.097 1018.31 963.032 1027.4C952.925 1035.71 946.551 1038.61 933.647 1040.76C924.9 1042.22 913.611 1041.65 909.604 1040.76L898.46 1037.04C898.028 1036.9 897.583 1037.22 897.583 1037.67C897.583 1037.93 897.726 1038.16 897.951 1038.27L902.926 1040.76C905.597 1042.09 914.174 1045.77 924.297 1046.1C939.85 1046.62 952.687 1045.44 967.039 1039.42C979.332 1034.27 987.96 1028.42 997.76 1019.39C1013.37 1004.99 1021.8 979.316 1021.8 964.624V782.97V772.284Z" fill="white"/>
<path d="M906.808 752.381C920.517 754.141 924.393 763.761 924.393 770.949C924.393 825.712 924.297 928.827 924.297 935.238C924.297 940.581 920.735 937.91 918.954 935.238L778.707 750.913H732.692C732.287 750.913 731.958 751.242 731.958 751.647C731.958 751.997 732.206 752.298 732.547 752.373C745.628 755.276 756 767.158 756 781.634V977.98C756 988.345 743.92 993.264 737.912 995.175C737.59 995.277 737.371 995.575 737.371 995.912C737.371 996.336 737.715 996.68 738.139 996.68H782.046C782.415 996.68 782.714 996.381 782.714 996.012C782.714 995.643 782.412 995.346 782.043 995.33C771.805 994.894 766.686 984.518 766.686 977.98V786.977L931.772 998.66C932.113 999.097 932.635 999.352 933.188 999.352C934.179 999.352 934.983 998.548 934.983 997.557V770.949C934.983 761.764 938.849 753.869 950.38 752.326C950.736 752.279 951.011 751.977 951.011 751.618C951.011 751.229 950.695 750.913 950.306 750.913H905.719C905.652 750.913 905.598 750.967 905.598 751.034C905.598 751.722 906.125 752.294 906.808 752.381Z" fill="white"/>
<path d="M1423.84 990.002C1431.61 978.067 1430.52 967.295 1431.86 947.26C1422.24 975.042 1387.78 988.666 1373.09 988.666H1319.66V769.613C1319.66 761.739 1328.69 753.865 1340.4 752.325C1340.76 752.278 1341.03 751.977 1341.03 751.618C1341.03 751.229 1340.72 750.913 1340.33 750.913H1267.02C1266.59 750.913 1266.23 751.267 1266.23 751.702C1266.23 752.031 1266.44 752.326 1266.75 752.44C1277.26 756.343 1287.6 759.077 1287.6 768.277V985.995C1286.54 991.337 1277.36 995.344 1272.91 996.68H1414.49C1414.49 996.68 1419.78 996.257 1423.84 990.002Z" fill="white"/>
<path d="M288.51 976.645C288.51 983.323 285.838 995.612 269.81 996.68H339.266C329.916 996.68 320.683 991.809 320.566 976.645C320.121 919.21 320.567 809.312 320.567 790.984C320.567 773.605 291.744 755.558 281.926 750.319C281.133 749.896 280.17 750.23 279.768 751.034C279.416 751.737 279.621 752.588 280.228 753.089C285.028 757.045 288.51 762.45 288.51 767.431V976.645Z" fill="white"/>
<path d="M371.322 976.645C371.322 983.323 368.65 995.611 352.622 996.68H422.079C415.845 994.454 403.378 987.33 403.378 976.645V770.949V758.927C418.071 758.927 446.12 755.989 462.149 765.606C479.958 776.291 491.534 794.991 491.534 827.048C491.534 851.09 487.527 876.468 455.47 892.496C445.163 896.362 438.584 896.498 427.341 897.702C426.627 897.779 426.085 898.383 426.085 899.101C426.085 899.879 426.718 900.511 427.497 900.508C445.465 900.44 458.616 899.039 476.841 893.832C492.869 887.154 506.078 875.132 514.24 861.776L514.295 861.686C516.81 857.572 524.926 844.294 524.926 828.383C524.926 768.277 482.184 750.913 418.071 750.913L356.763 750.913C355.953 750.913 355.293 751.57 355.293 752.381C355.293 753.081 355.787 753.679 356.465 753.853C363.012 755.538 371.322 760.674 371.322 767.43V976.645Z" fill="white"/>
<path d="M93.498 700.157C207.032 706.836 247.103 797.662 247.103 836.397C247.103 875.132 243.095 920.546 203.024 956.609C162.954 992.673 112.197 996.681 97.5049 996.681H0C19.2338 992.406 23.5974 974.864 22.707 963.288V732.214C22.707 709.774 7.12368 701.048 0 700.157H93.498ZM56.0986 955.273C56.0986 960.616 60.106 971.97 68.1201 977.98C75.2437 983.323 86.8195 988.666 97.5049 988.666C106.95 988.666 124.538 987.737 152.269 976.644C185.661 963.288 227.067 913.867 211.039 829.719C199.018 754.92 144.521 712.98 81.4766 710.843H54.7637L56.0986 955.273Z" fill="white"/>
<path d="M618.567 750.246C619.494 748.043 622.626 748.072 623.512 750.292L715.931 981.988C720.874 991.876 726.96 994.902 729.959 995.298C730.324 995.346 730.622 995.643 730.622 996.012C730.622 996.381 730.324 996.68 729.955 996.68H669.931C669.517 996.68 669.181 996.345 669.181 995.931C669.18 995.586 669.421 995.287 669.752 995.193C679.908 992.316 681.038 982.67 679.865 977.981C678.53 972.638 663.393 934.794 654.488 911.197H562.326L534.276 976.645C531.139 982.92 535.421 994.826 545.625 995.328C545.993 995.347 546.297 995.643 546.297 996.012C546.297 996.381 545.998 996.68 545.629 996.68H501.588C501.199 996.68 500.884 996.365 500.884 995.976C500.884 995.617 501.155 995.315 501.512 995.27C510.781 994.086 517.029 989.768 522.255 979.317L618.567 750.246ZM564.996 901.846H651.816L611.745 792.32L564.996 901.846Z" fill="white"/>
<path d="M1251.54 981.988C1256.49 991.876 1262.57 994.901 1265.57 995.297C1265.94 995.346 1266.23 995.644 1266.23 996.012C1266.23 996.381 1265.94 996.68 1265.57 996.68H1205.54C1205.13 996.68 1204.79 996.345 1204.79 995.931C1204.79 995.587 1205.03 995.286 1205.36 995.192C1215.52 992.315 1216.65 982.67 1215.48 977.981C1214.14 972.638 1199 934.793 1190.1 911.196H1097.94L1069.89 976.645C1066.75 982.92 1071.03 994.825 1081.24 995.328C1081.6 995.346 1081.91 995.643 1081.91 996.012C1081.91 996.381 1081.61 996.68 1081.24 996.68H1037.2C1036.81 996.68 1036.5 996.364 1036.5 995.975C1036.5 995.616 1036.77 995.316 1037.12 995.27C1046.39 994.086 1052.64 989.767 1057.87 979.316L1156.71 744.235L1251.54 981.988ZM1100.61 901.846H1187.43L1147.36 792.32L1100.61 901.846Z" fill="white"/>
<path d="M1444.44 752.402C1447.55 753.309 1462.54 758.47 1462.54 773.62C1462.54 844.412 1462.54 970.768 1462.54 973.973C1462.54 981.906 1462.54 989.839 1444.4 995.181C1444.07 995.277 1443.84 995.579 1443.84 995.919C1443.84 996.339 1444.18 996.68 1444.6 996.68H1511.25C1511.64 996.68 1511.96 996.364 1511.96 995.975C1511.96 995.616 1511.69 995.315 1511.33 995.264C1499.7 993.599 1493.16 982.201 1493.16 975.309C1493.16 904.517 1493.26 781.952 1493.26 776.609C1493.26 761.884 1503.58 756.463 1511.54 752.479C1511.82 752.338 1512 752.049 1512 751.733C1511.99 751.279 1511.62 750.913 1511.17 750.913H1444.63C1444.21 750.913 1443.88 751.247 1443.88 751.659C1443.88 752.005 1444.11 752.305 1444.44 752.402Z" fill="white"/>
<path d="M403.103 1095.38C400.671 1093.12 397.832 1091.36 394.588 1090.08C391.403 1088.81 388.101 1088.17 384.683 1088.17C381.208 1088.17 377.964 1088.84 374.952 1090.17C371.94 1091.44 369.275 1093.24 366.958 1095.56C364.641 1097.82 362.846 1100.45 361.571 1103.46C360.297 1106.42 359.66 1109.63 359.66 1113.11C359.66 1116.58 360.297 1119.83 361.571 1122.84C362.846 1125.85 364.641 1128.52 366.958 1130.83C369.275 1133.15 371.94 1134.98 374.952 1136.31C377.964 1137.58 381.237 1138.22 384.77 1138.22C387.956 1138.22 391.142 1137.61 394.328 1136.39C397.514 1135.12 400.352 1133.44 402.843 1131.35L405.246 1135.09C403.277 1136.66 402.727 1139.09 400.236 1140.3C397.745 1141.52 395.139 1142.48 392.416 1143.17C389.752 1143.81 387.058 1144.13 384.336 1144.13C379.876 1144.13 375.734 1143.35 371.911 1141.78C368.088 1140.16 364.728 1137.93 361.832 1135.09C358.936 1132.25 356.677 1128.95 355.055 1125.19C353.433 1121.42 352.622 1117.4 352.622 1113.11C352.622 1108.82 353.433 1104.83 355.055 1101.12C356.735 1097.41 359.023 1094.14 361.919 1091.3C364.873 1088.46 368.291 1086.26 372.172 1084.7C376.053 1083.13 380.223 1082.35 384.683 1082.35C387.464 1082.35 390.186 1082.7 392.851 1083.39C395.573 1084.03 398.122 1084.96 400.497 1086.17C402.93 1087.39 405.131 1088.87 407.1 1090.6L403.103 1095.38Z" fill="white"/>
<path d="M467.307 1082.35C471.709 1082.35 475.822 1083.13 479.645 1084.7C483.526 1086.26 486.914 1088.46 489.81 1091.3C492.707 1094.14 494.966 1097.41 496.588 1101.12C498.267 1104.83 499.107 1108.82 499.107 1113.11C499.107 1117.4 498.267 1121.42 496.588 1125.19C494.966 1128.95 492.707 1132.25 489.81 1135.09C486.914 1137.93 483.526 1140.16 479.645 1141.78C475.822 1143.35 471.709 1144.13 467.307 1144.13C462.847 1144.13 458.676 1143.35 454.795 1141.78C450.972 1140.16 447.612 1137.93 444.716 1135.09C441.82 1132.25 439.532 1128.95 437.852 1125.19C436.23 1121.42 435.419 1117.4 435.419 1113.11C435.419 1108.82 436.23 1104.83 437.852 1101.12C439.532 1097.35 441.82 1094.08 444.716 1091.3C447.612 1088.46 450.972 1086.26 454.795 1084.7C458.676 1083.13 462.847 1082.35 467.307 1082.35ZM467.307 1088.26C463.889 1088.26 460.674 1088.9 457.662 1090.17C454.708 1091.44 452.073 1093.24 449.756 1095.56C447.497 1097.82 445.701 1100.45 444.369 1103.46C443.094 1106.48 442.457 1109.69 442.457 1113.11C442.457 1116.58 443.094 1119.83 444.369 1122.84C445.701 1125.85 447.526 1128.52 449.842 1130.83C452.159 1133.15 454.795 1134.95 457.749 1136.22C460.761 1137.49 463.947 1138.13 467.307 1138.13C470.724 1138.13 473.91 1137.49 476.864 1136.22C479.876 1134.95 482.512 1133.15 484.771 1130.83C487.03 1128.52 488.797 1125.85 490.071 1122.84C491.345 1119.83 491.983 1116.58 491.983 1113.11C491.983 1109.69 491.345 1106.48 490.071 1103.46C488.797 1100.45 487.03 1097.82 484.771 1095.56C482.512 1093.24 479.876 1091.44 476.864 1090.17C473.91 1088.9 470.724 1088.26 467.307 1088.26Z" fill="white"/>
<path d="M529.212 1082.79H536.163V1137.61H562.837V1143.61H529.212V1082.79Z" fill="white"/>
<path d="M615.977 1082.79C620.437 1082.79 624.579 1083.57 628.402 1085.13C632.225 1086.64 635.527 1088.78 638.307 1091.56C641.145 1094.28 643.347 1097.5 644.911 1101.21C646.532 1104.91 647.343 1108.91 647.343 1113.2C647.343 1117.54 646.532 1121.54 644.911 1125.19C643.347 1128.84 641.145 1132.05 638.307 1134.83C635.469 1137.61 632.138 1139.78 628.315 1141.35C624.492 1142.85 620.35 1143.61 615.89 1143.61H591.475V1082.79H615.977ZM616.151 1137.61C619.569 1137.61 622.725 1137 625.622 1135.79C628.518 1134.57 631.067 1132.86 633.268 1130.66C635.469 1128.4 637.178 1125.79 638.394 1122.84C639.668 1119.89 640.306 1116.7 640.306 1113.28C640.306 1109.81 639.668 1106.59 638.394 1103.64C637.12 1100.68 635.382 1098.11 633.181 1095.91C630.98 1093.65 628.402 1091.91 625.448 1090.69C622.494 1089.48 619.308 1088.87 615.89 1088.87H598.426V1137.61H616.151Z" fill="white"/>
<path d="M707.663 1082.79H754.321V1088.87H734.424V1143.61H727.473V1088.87H707.663V1082.79Z" fill="white"/>
<path d="M804.856 1082.79C812.502 1082.79 818.41 1084.58 822.581 1088.17C826.751 1091.71 828.837 1096.69 828.837 1103.12C828.837 1109.78 826.751 1114.96 822.581 1118.67C818.41 1122.32 812.502 1124.14 804.856 1124.14H788.695V1143.61H781.744V1082.79H804.856ZM804.856 1118.15C810.359 1118.15 814.616 1116.9 817.628 1114.41C820.698 1111.86 822.233 1108.16 822.233 1103.29C822.233 1098.54 820.698 1094.95 817.628 1092.52C814.616 1090.08 810.359 1088.87 804.856 1088.87H788.695V1118.15H804.856ZM806.941 1121.28H813.979L829.445 1143.61H821.538L806.941 1121.28Z" fill="white"/>
<path d="M880.331 1082.79H887.456L914.651 1143.61H907.179L883.719 1089.91L860.434 1143.61H853.135L880.331 1082.79ZM865.126 1121.8H902.053V1127.79H865.126V1121.8Z" fill="white"/>
<path d="M966.155 1082.79C970.616 1082.79 974.757 1083.57 978.58 1085.13C982.403 1086.64 985.705 1088.78 988.485 1091.56C991.324 1094.28 993.525 1097.5 995.089 1101.21C996.711 1104.91 997.522 1108.91 997.522 1113.2C997.522 1117.54 996.711 1121.54 995.089 1125.19C993.525 1128.84 991.324 1132.05 988.485 1134.83C985.647 1137.61 982.316 1139.78 978.493 1141.35C974.67 1142.85 970.529 1143.61 966.069 1143.61H941.653V1082.79H966.155ZM966.329 1137.61C969.747 1137.61 972.904 1137 975.8 1135.79C978.696 1134.57 981.245 1132.86 983.446 1130.66C985.647 1128.4 987.356 1125.79 988.572 1122.84C989.847 1119.89 990.484 1116.7 990.484 1113.28C990.484 1109.81 989.847 1106.59 988.572 1103.64C987.298 1100.68 985.56 1098.11 983.359 1095.91C981.158 1093.65 978.58 1091.91 975.626 1090.69C972.672 1089.48 969.486 1088.87 966.069 1088.87H948.604V1137.61H966.329Z" fill="white"/>
<path d="M1027.59 1082.79H1034.54V1143.61H1027.59V1082.79Z" fill="white"/>
<path d="M1070.34 1082.79H1077.55L1115.87 1135.44L1114.04 1136.05V1082.79H1120.91V1143.61H1113.78L1075.46 1091.04L1077.29 1090.43V1143.61H1070.34V1082.79Z" fill="white"/>
<path d="M1201.53 1095.38C1199.1 1093.12 1196.26 1091.36 1193.02 1090.08C1189.83 1088.81 1186.53 1088.17 1183.11 1088.17C1179.63 1088.17 1176.39 1088.84 1173.38 1090.17C1170.37 1091.44 1167.7 1093.24 1165.39 1095.56C1163.07 1097.82 1161.27 1100.45 1160 1103.46C1158.72 1106.42 1158.09 1109.63 1158.09 1113.11C1158.09 1116.58 1158.72 1119.83 1160 1122.84C1161.27 1125.85 1163.07 1128.52 1165.39 1130.83C1167.7 1133.15 1170.37 1134.98 1173.38 1136.31C1176.39 1137.58 1179.66 1138.22 1183.2 1138.22C1186.38 1138.22 1189.57 1137.61 1192.75 1136.39C1195.94 1135.12 1198.78 1133.44 1201.27 1131.35L1199.98 1134.26C1198.01 1135.82 1198.46 1135.71 1195.97 1136.93C1193.48 1138.14 1193.57 1142.48 1190.84 1143.17C1188.18 1143.81 1185.49 1144.13 1182.76 1144.13C1178.3 1144.13 1174.16 1143.35 1170.34 1141.78C1166.51 1140.16 1163.16 1137.93 1160.26 1135.09C1157.36 1132.25 1155.1 1128.95 1153.48 1125.19C1151.86 1121.42 1151.05 1117.4 1151.05 1113.11C1151.05 1108.82 1151.86 1104.83 1153.48 1101.12C1155.16 1097.41 1157.45 1094.14 1160.35 1091.3C1163.3 1088.46 1166.72 1086.26 1170.6 1084.7C1174.48 1083.13 1178.65 1082.35 1183.11 1082.35C1185.89 1082.35 1188.61 1082.7 1191.28 1083.39C1194 1084.03 1196.55 1084.96 1198.92 1086.17C1201.36 1087.39 1203.56 1088.87 1205.53 1090.6L1201.53 1095.38Z" fill="white"/>
<path d="M387.246 1118.84H403.668C403.668 1120.29 403.523 1121.91 403.234 1123.71C403.002 1125.45 402.538 1127.16 401.843 1128.84C401.206 1130.52 400.25 1132.05 398.976 1133.44C397.702 1134.83 396.022 1135.93 393.937 1136.74C391.851 1137.55 389.245 1137.96 386.117 1137.96L366.133 1136.31C370.825 1141.75 377.486 1144.47 386.117 1144.47C391.967 1144.47 396.717 1143.35 400.366 1141.09C404.016 1138.77 406.709 1135.73 408.447 1131.96C410.185 1128.14 411.053 1124 411.053 1119.54V1112.41H387.246V1118.84Z" fill="white"/>
<path d="M1185.03 1117.98H1201.45C1201.45 1119.43 1201.31 1121.05 1201.02 1122.84C1200.79 1124.58 1200.32 1126.29 1199.63 1127.97C1198.99 1129.65 1198.03 1131.19 1196.76 1132.58C1195.49 1133.97 1193.81 1135.07 1191.72 1135.88C1189.64 1136.69 1187.03 1137.09 1183.9 1137.09L1163.92 1135.44C1168.61 1140.89 1175.27 1143.61 1183.9 1143.61C1189.75 1143.61 1194.5 1142.48 1198.15 1140.22C1201.8 1137.91 1204.49 1134.86 1206.23 1131.1C1207.97 1127.28 1208.84 1123.13 1208.84 1118.67V1111.55H1185.03V1117.98Z" fill="white"/>
</svg>
